<svg width="200" height="31" viewBox="0 0 200 31" fill="none" xmlns="http://www.w3.org/2000/svg">
<mask id="mask0_4_349" style="mask-type:luminance" maskUnits="userSpaceOnUse" x="0" y="0" width="200" height="31">
<path d="M200 0H0V30.357H200V0Z" fill="white"/>
</mask>
<g mask="url(#mask0_4_349)">
<path d="M5.577 0.918997C5.26735 0.610373 4.89934 0.366498 4.49444 0.201598C4.08954 0.0366982 3.65586 -0.0459256 3.2187 -0.0414537C2.78153 -0.0369818 2.34963 0.0544964 1.94819 0.227645C1.54675 0.400793 1.18381 0.652145 0.880533 0.967039C0.577258 1.28193 0.339721 1.65406 0.18178 2.06173C0.023839 2.46939 -0.0513452 2.90442 -0.0393867 3.34145C-0.0274282 3.77847 0.0714335 4.20874 0.251432 4.60716C0.43143 5.00557 0.688961 5.36416 1.009 5.662L10.636 14.935L1.026 24.305C0.400888 24.915 0.0436963 25.7483 0.0330068 26.6217C0.0223172 27.495 0.359005 28.3369 0.969003 28.962C1.579 29.5871 2.41234 29.9443 3.2857 29.955C4.15905 29.9657 5.00089 29.629 5.626 29.019L20.101 14.906L5.577 0.918997Z" fill="#8DBBF8"/>
<path d="M15.149 0.919997C14.8393 0.611372 14.4713 0.367498 14.0664 0.202598C13.6615 0.0376976 13.2279 -0.0449262 12.7907 -0.0404542C12.3535 -0.0359823 11.9216 0.0554958 11.5202 0.228644C11.1187 0.401792 10.7558 0.653144 10.4525 0.968038C10.1492 1.28293 9.91171 1.65506 9.75377 2.06273C9.59583 2.47039 9.52065 2.90542 9.5326 3.34245C9.54456 3.77947 9.64342 4.20974 9.82342 4.60816C10.0034 5.00657 10.261 5.36516 10.581 5.663L20.205 14.935L10.596 24.306C10.2865 24.608 10.0395 24.9681 9.86908 25.3656C9.6987 25.7631 9.60829 26.1902 9.603 26.6227C9.5977 27.0551 9.67764 27.4844 9.83824 27.8859C9.99884 28.2875 10.237 28.6535 10.539 28.963C10.841 29.2725 11.2011 29.5195 11.5986 29.6899C11.9961 29.8603 12.4232 29.9507 12.8557 29.956C13.2881 29.9613 13.7174 29.8814 14.1189 29.7208C14.5205 29.5602 14.8865 29.322 15.196 29.02L29.669 14.906L15.149 0.919997Z" fill="#165DBA"/>
<path d="M50.383 20.055C50.4445 20.05 50.5022 20.023 50.5454 19.9789C50.5886 19.9348 50.6144 19.8766 50.618 19.815L50.461 13.084L50.618 6.273C50.6144 6.21139 50.5886 6.15317 50.5454 6.10907C50.5022 6.06497 50.4445 6.03795 50.383 6.033H48.324C48.2625 6.03795 48.2048 6.06497 48.1616 6.10907C48.1185 6.15317 48.0927 6.21139 48.089 6.273L48.189 11.602H41.519L41.619 6.273C41.6154 6.21139 41.5896 6.15317 41.5464 6.10907C41.5032 6.06497 41.4455 6.03795 41.384 6.033H39.323C39.2615 6.03795 39.2038 6.06497 39.1606 6.10907C39.1175 6.15317 39.0917 6.21139 39.088 6.273L39.245 13.084L39.088 19.815C39.0917 19.8766 39.1175 19.9348 39.1606 19.9789C39.2038 20.023 39.2615 20.05 39.323 20.055H41.382C41.4435 20.05 41.5012 20.023 41.5444 19.9789C41.5876 19.9348 41.6134 19.8766 41.617 19.815L41.499 13.525H48.205L48.087 19.815C48.0907 19.8766 48.1165 19.9348 48.1596 19.9789C48.2028 20.023 48.2605 20.05 48.322 20.055H50.383ZM62.913 10.44C62.913 7.515 61.013 6.033 57.854 6.033H53.054C52.9925 6.03795 52.9348 6.06497 52.8916 6.10907C52.8485 6.15317 52.8227 6.21139 52.819 6.273L52.956 12.964L52.819 19.815C52.8227 19.8766 52.8485 19.9348 52.8916 19.9789C52.9348 20.023 52.9925 20.05 53.054 20.055H55.093C55.1545 20.05 55.2122 20.023 55.2554 19.9789C55.2986 19.9348 55.3244 19.8766 55.328 19.815L55.25 14.967H57.858C60.952 14.967 62.913 13.365 62.913 10.44ZM60.58 10.48C60.6233 10.8273 60.5876 11.18 60.4756 11.5116C60.3636 11.8433 60.1781 12.1453 59.9331 12.3953C59.688 12.6452 59.3897 12.8366 59.0604 12.9552C58.731 13.0737 58.3792 13.1164 58.031 13.08H55.206L55.284 7.912H57.952C58.3036 7.86159 58.662 7.89275 58.9996 8.00306C59.3372 8.11336 59.6449 8.29986 59.8988 8.54813C60.1528 8.79639 60.3462 9.09976 60.4642 9.43475C60.5821 9.76975 60.6224 10.1274 60.58 10.48ZM65.032 20.055C65.0935 20.05 65.1512 20.023 65.1944 19.9789C65.2376 19.9348 65.2634 19.8766 65.267 19.815V17.772C65.2631 17.7106 65.2372 17.6526 65.1941 17.6087C65.1509 17.5648 65.0934 17.5379 65.032 17.533H62.991C62.9295 17.538 62.8718 17.565 62.8286 17.6091C62.7855 17.6532 62.7597 17.7114 62.756 17.773V19.816C62.7597 19.8776 62.7855 19.9358 62.8286 19.9799C62.8718 20.024 62.9295 20.051 62.991 20.056L65.032 20.055ZM75.894 16.369C75.896 16.339 75.892 16.3088 75.8822 16.2804C75.8724 16.2519 75.8569 16.2257 75.8368 16.2033C75.8166 16.1809 75.7922 16.1628 75.7649 16.1501C75.7377 16.1373 75.7081 16.1301 75.678 16.129H73.913C73.8481 16.1296 73.7858 16.1546 73.7386 16.1991C73.6913 16.2436 73.6625 16.3043 73.658 16.369C73.659 16.6656 73.6006 16.9594 73.486 17.2329C73.3715 17.5065 73.2032 17.7543 72.9912 17.9617C72.7791 18.1691 72.5276 18.3318 72.2516 18.4402C71.9755 18.5487 71.6805 18.6006 71.384 18.593C69.658 18.573 68.815 17.393 68.815 14.907C68.815 12.507 69.639 11.221 71.384 11.221C71.9189 11.2075 72.4394 11.3952 72.8425 11.747C73.2457 12.0989 73.5021 12.5892 73.561 13.121C73.57 13.1875 73.6028 13.2486 73.6534 13.2927C73.704 13.3368 73.7689 13.3611 73.836 13.361H75.542C75.5721 13.3599 75.6017 13.3527 75.6289 13.3399C75.6562 13.3272 75.6806 13.3091 75.7008 13.2867C75.7209 13.2643 75.7364 13.2381 75.7462 13.2096C75.756 13.1812 75.76 13.151 75.758 13.121C75.6528 12.0628 75.1348 11.0887 74.3162 10.4099C73.4976 9.73115 72.4444 9.40242 71.385 9.495C68.208 9.495 66.385 11.658 66.385 14.924C66.385 18.19 68.209 20.293 71.326 20.293C72.4488 20.3639 73.5548 19.9933 74.4082 19.2602C75.2616 18.5271 75.7948 17.4896 75.894 16.369ZM87.012 14.869C87.012 11.604 85.228 9.5 82.051 9.5C78.874 9.5 77.051 11.663 77.051 14.929C77.051 18.195 78.875 20.298 82.051 20.298C85.227 20.298 87.012 18.152 87.012 14.867V14.869ZM79.482 14.949C79.482 12.505 80.306 11.223 82.031 11.203C83.757 11.203 84.58 12.485 84.58 14.929C84.58 17.393 83.78 18.595 82.05 18.595C80.32 18.595 79.482 17.371 79.482 14.947V14.949ZM90.992 14.549C91.192 12.506 92.169 11.384 93.169 11.384C94.169 11.384 94.797 12.045 94.797 13.608V16.208L94.719 19.814C94.7227 19.8756 94.7485 19.9338 94.7916 19.9779C94.8348 20.022 94.8925 20.049 94.954 20.054H96.932C96.9935 20.049 97.0512 20.022 97.0944 19.9779C97.1376 19.9338 97.1634 19.8756 97.167 19.814L97.067 16.208V14.225C97.322 12.382 98.267 11.38 99.185 11.38C100.165 11.38 100.832 12.041 100.832 13.604V16.204L100.732 19.81C100.736 19.8716 100.761 19.9298 100.805 19.9739C100.848 20.018 100.905 20.045 100.967 20.05H102.947C103.009 20.045 103.066 20.018 103.109 19.9739C103.153 19.9298 103.178 19.8716 103.182 19.81L103.132 16.209V13.545C103.132 10.761 101.955 9.499 99.932 9.499C99.2655 9.49019 98.6114 9.67971 98.0528 10.0435C97.4943 10.4072 97.0565 10.9288 96.795 11.542C96.6305 10.9175 96.2517 10.3707 95.7249 9.99728C95.1981 9.62381 94.5567 9.44744 93.913 9.499C93.3027 9.49428 92.7023 9.65354 92.1746 9.96015C91.6469 10.2668 91.2112 10.7095 90.913 11.242L90.952 9.98C90.9484 9.91838 90.9226 9.86017 90.8794 9.81607C90.8362 9.77197 90.7785 9.74495 90.717 9.74H88.874C88.8125 9.74495 88.7548 9.77197 88.7116 9.81607C88.6685 9.86017 88.6427 9.91838 88.639 9.98L88.698 16.21L88.598 19.816C88.6017 19.8776 88.6275 19.9358 88.6706 19.9799C88.7138 20.024 88.7715 20.051 88.833 20.056H90.853C90.9145 20.051 90.9722 20.024 91.0154 19.9799C91.0586 19.9358 91.0844 19.8776 91.088 19.816L90.988 16.21L90.992 14.549ZM120.219 19.795C120.23 19.8239 120.237 19.8542 120.239 19.885C120.24 19.9081 120.237 19.9312 120.228 19.9528C120.22 19.9744 120.207 19.9939 120.19 20.01C120.148 20.0429 120.096 20.059 120.043 20.055H118.562C118.507 20.0585 118.452 20.0424 118.407 20.0095C118.362 19.9766 118.33 19.929 118.317 19.875L116.944 15.833H111.366L110.032 19.875C110.017 19.9301 109.984 19.9782 109.937 20.0111C109.89 20.044 109.834 20.0595 109.777 20.055H108.346C108.293 20.059 108.241 20.0429 108.199 20.01C108.182 19.9939 108.169 19.9744 108.161 19.9528C108.152 19.9312 108.149 19.9081 108.15 19.885C108.152 19.8542 108.159 19.8239 108.17 19.795L112.944 6.213C112.957 6.15903 112.989 6.11144 113.034 6.07854C113.079 6.04564 113.134 6.02952 113.189 6.033H115.258C115.312 6.03074 115.365 6.04752 115.408 6.08041C115.451 6.1133 115.481 6.16023 115.493 6.213L120.219 19.795ZM116.464 14.306L114.132 7.365L111.832 14.306H116.464ZM129.964 12.223L130.032 19.833C130.036 19.8626 130.034 19.8927 130.025 19.9212C130.016 19.9496 130 19.9755 129.979 19.9969C129.958 20.0182 129.932 20.0344 129.904 20.0441C129.876 20.0538 129.846 20.0569 129.816 20.053H128.416C128.386 20.055 128.355 20.0506 128.326 20.0403C128.298 20.03 128.271 20.0139 128.249 19.993C128.229 19.9701 128.214 19.943 128.205 19.9136C128.197 19.8841 128.195 19.8532 128.2 19.823L128.239 18.311C127.936 18.8994 127.48 19.3956 126.92 19.748C126.347 20.0929 125.688 20.2684 125.02 20.254C124.209 20.2754 123.413 20.0294 122.755 19.554C122.111 19.0665 121.618 18.4073 121.332 17.652C120.997 16.7801 120.832 15.852 120.847 14.918C120.833 13.9843 121.003 13.057 121.347 12.189C121.646 11.4207 122.15 10.7489 122.803 10.246C123.452 9.76433 124.244 9.51339 125.052 9.533C125.705 9.51796 126.35 9.67892 126.92 9.999C127.468 10.3251 127.918 10.7942 128.22 11.356L128.171 6.256C128.168 6.22587 128.171 6.19538 128.182 6.16684C128.192 6.13831 128.208 6.11247 128.23 6.09128C128.252 6.07008 128.278 6.0541 128.307 6.04452C128.335 6.03494 128.366 6.03203 128.396 6.036H129.818C129.848 6.0321 129.878 6.03515 129.906 6.04489C129.934 6.05463 129.96 6.07081 129.981 6.09214C130.002 6.11347 130.018 6.13938 130.027 6.16781C130.036 6.19625 130.038 6.22644 130.034 6.256L129.964 12.223ZM125.464 18.984C125.867 18.9977 126.268 18.9104 126.629 18.7302C126.99 18.55 127.3 18.2825 127.532 17.952C128.095 17.0442 128.359 15.9827 128.287 14.917C128.35 13.8515 128.094 12.7916 127.552 11.872C127.331 11.5276 127.024 11.2468 126.661 11.0571C126.298 10.8674 125.892 10.7753 125.483 10.79C125.069 10.7698 124.657 10.8598 124.29 11.0508C123.922 11.2418 123.612 11.5269 123.39 11.877C122.875 12.7607 122.628 13.7753 122.679 14.797C122.626 15.8612 122.87 16.9191 123.385 17.852C123.596 18.2114 123.901 18.5066 124.268 18.706C124.634 18.9054 125.047 19.0015 125.464 18.984ZM131.332 9.999C131.321 9.9701 131.314 9.9398 131.312 9.909C131.311 9.88587 131.314 9.86275 131.323 9.84118C131.331 9.81962 131.344 9.80012 131.361 9.784C131.403 9.75105 131.455 9.73498 131.508 9.739H133.028C133.083 9.73738 133.137 9.75423 133.181 9.78684C133.226 9.81945 133.258 9.86597 133.273 9.919L136.106 18.619L139.006 9.919C139.021 9.86597 139.053 9.81945 139.098 9.78684C139.142 9.75423 139.196 9.73738 139.251 9.739H140.545C140.596 9.73651 140.647 9.75248 140.687 9.784C140.705 9.7993 140.719 9.81853 140.729 9.84021C140.738 9.86188 140.742 9.88542 140.741 9.909L140.721 9.999L137.221 19.915C137.209 19.9678 137.179 20.0147 137.136 20.0476C137.093 20.0805 137.04 20.0973 136.986 20.095H135.102C135.048 20.0973 134.995 20.0805 134.952 20.0476C134.909 20.0147 134.879 19.9678 134.867 19.915L131.332 9.999ZM150.264 14.787L150.342 19.835C150.346 19.8646 150.344 19.8947 150.335 19.9232C150.326 19.9516 150.31 19.9775 150.289 19.9989C150.268 20.0202 150.242 20.0364 150.214 20.0461C150.186 20.0558 150.156 20.0589 150.126 20.055H148.732C148.702 20.057 148.671 20.0526 148.642 20.0423C148.614 20.032 148.587 20.0159 148.565 19.995C148.545 19.9738 148.531 19.9484 148.522 19.9206C148.514 19.8929 148.512 19.8636 148.516 19.835L148.545 18.283C148.244 18.8743 147.791 19.3747 147.232 19.733C146.661 20.0815 146.001 20.2588 145.332 20.244C144.521 20.2654 143.725 20.0194 143.067 19.544C142.42 19.0594 141.922 18.4018 141.632 17.647C141.297 16.7769 141.132 15.8504 141.147 14.918C141.134 13.9845 141.304 13.0574 141.647 12.189C141.943 11.4204 142.447 10.7494 143.103 10.251C143.754 9.77244 144.545 9.52248 145.353 9.54C146.013 9.52513 146.665 9.6878 147.24 10.011C147.795 10.3404 148.245 10.8194 148.54 11.393L148.501 9.971C148.496 9.9408 148.498 9.90986 148.506 9.88044C148.515 9.85102 148.53 9.82388 148.55 9.801C148.572 9.7801 148.599 9.76399 148.627 9.75367C148.656 9.74335 148.687 9.73904 148.717 9.741H150.117C150.147 9.7371 150.177 9.74015 150.205 9.74989C150.233 9.75963 150.259 9.77581 150.28 9.79714C150.301 9.81847 150.317 9.84437 150.326 9.87281C150.335 9.90125 150.337 9.93144 150.333 9.961L150.264 14.787ZM145.774 18.964C146.178 18.979 146.58 18.8926 146.942 18.7125C147.305 18.5324 147.616 18.2644 147.848 17.933C148.405 17.0248 148.665 15.9658 148.593 14.903C148.657 13.8454 148.4 12.7931 147.858 11.883C147.634 11.5421 147.326 11.2648 146.964 11.0778C146.601 10.8909 146.197 10.8007 145.789 10.816C145.376 10.7936 144.964 10.881 144.595 11.0693C144.226 11.2576 143.913 11.54 143.689 11.888C143.176 12.7635 142.931 13.7698 142.983 14.783C142.929 15.8456 143.174 16.902 143.689 17.833C143.901 18.1924 144.206 18.4875 144.572 18.6867C144.939 18.8859 145.352 18.9818 145.769 18.964H145.774ZM161.01 15.649L161.059 19.836C161.063 19.8656 161.061 19.8957 161.052 19.9242C161.043 19.9526 161.027 19.9785 161.006 19.9999C160.985 20.0212 160.959 20.0374 160.931 20.0471C160.903 20.0568 160.873 20.0599 160.843 20.056H159.431C159.401 20.0599 159.371 20.0568 159.343 20.0471C159.315 20.0374 159.289 20.0212 159.268 19.9999C159.247 19.9785 159.232 19.9526 159.222 19.9242C159.213 19.8957 159.211 19.8656 159.215 19.836L159.264 15.649V13.676C159.319 12.9362 159.117 12.2 158.69 11.593C158.502 11.3658 158.264 11.1852 157.994 11.0653C157.724 10.9454 157.431 10.8895 157.136 10.902C156.804 10.9031 156.476 10.9762 156.175 11.1162C155.873 11.2562 155.606 11.4598 155.391 11.713C154.842 12.3673 154.485 13.1616 154.362 14.007V15.65L154.391 19.837C154.395 19.8666 154.393 19.8967 154.384 19.9252C154.375 19.9536 154.359 19.9795 154.338 20.0009C154.317 20.0222 154.291 20.0384 154.263 20.0481C154.235 20.0578 154.205 20.0609 154.175 20.057H152.744C152.607 20.057 152.538 19.9837 152.538 19.837L152.607 15.36L152.548 9.96C152.544 9.93044 152.546 9.90025 152.555 9.87181C152.565 9.84338 152.58 9.81747 152.601 9.79614C152.622 9.77481 152.648 9.75863 152.676 9.74889C152.704 9.73915 152.734 9.7361 152.764 9.74H154.107C154.251 9.74 154.323 9.81666 154.323 9.97L154.274 11.532C154.612 10.9463 155.082 10.4475 155.647 10.075C156.237 9.68658 156.931 9.48578 157.637 9.499C158.103 9.47478 158.569 9.55691 158.998 9.73917C159.428 9.92143 159.81 10.199 160.117 10.551C160.768 11.4308 161.085 12.514 161.009 13.606L161.01 15.649ZM166.5 20.226C165.772 20.2585 165.061 20.0031 164.52 19.515C164.244 19.2048 164.034 18.8411 163.904 18.4465C163.774 18.0519 163.727 17.6347 163.765 17.221L163.775 12.321V11.099H162.682C162.653 11.1003 162.624 11.0957 162.597 11.0854C162.57 11.0751 162.546 11.0593 162.525 11.039C162.505 11.0176 162.489 10.9925 162.479 10.965C162.469 10.9375 162.465 10.9083 162.466 10.879V9.958C162.465 9.92874 162.469 9.8995 162.479 9.87202C162.489 9.84454 162.505 9.81937 162.525 9.798C162.546 9.77772 162.57 9.76193 162.597 9.75161C162.624 9.74128 162.653 9.73665 162.682 9.738H163.76L163.731 7.374C163.727 7.34444 163.729 7.31425 163.738 7.28581C163.748 7.25738 163.763 7.23147 163.784 7.21014C163.805 7.18881 163.831 7.17263 163.859 7.16289C163.887 7.15315 163.917 7.1501 163.947 7.154H165.378C165.408 7.1501 165.438 7.15315 165.466 7.16289C165.494 7.17263 165.52 7.18881 165.541 7.21014C165.562 7.23147 165.578 7.25738 165.587 7.28581C165.596 7.31425 165.598 7.34444 165.594 7.374L165.565 9.738H167.84C167.869 9.73659 167.898 9.74119 167.925 9.75152C167.952 9.76185 167.976 9.77767 167.997 9.798C168.017 9.81937 168.033 9.84454 168.043 9.87202C168.053 9.8995 168.057 9.92874 168.056 9.958V10.879C168.06 10.9086 168.058 10.9387 168.049 10.9672C168.04 10.9956 168.024 11.0215 168.003 11.0429C167.982 11.0642 167.956 11.0804 167.928 11.0901C167.9 11.0998 167.87 11.1029 167.84 11.099H165.556V12.291L165.566 17.179C165.524 17.6307 165.629 18.0839 165.866 18.471C165.988 18.6028 166.138 18.7049 166.306 18.7692C166.473 18.8335 166.653 18.8584 166.832 18.842C167.161 18.8438 167.49 18.8102 167.812 18.742C167.837 18.7346 167.864 18.7312 167.89 18.732C167.995 18.732 168.047 18.7953 168.047 18.922V19.753C168.047 19.8863 167.995 19.9663 167.89 19.993C167.438 20.1362 166.969 20.2146 166.495 20.226H166.5ZM177.942 14.787L178.02 19.835C178.024 19.8646 178.022 19.8947 178.013 19.9232C178.004 19.9516 177.988 19.9775 177.967 19.9989C177.946 20.0202 177.92 20.0364 177.892 20.0461C177.864 20.0558 177.834 20.0589 177.804 20.055H176.412C176.382 20.057 176.351 20.0526 176.322 20.0423C176.294 20.032 176.267 20.0159 176.245 19.995C176.225 19.9738 176.211 19.9484 176.202 19.9206C176.194 19.8929 176.191 19.8636 176.196 19.835L176.225 18.283C175.923 18.8748 175.468 19.3753 174.908 19.733C174.337 20.0815 173.677 20.2588 173.008 20.244C172.197 20.2654 171.401 20.0194 170.743 19.544C170.098 19.0575 169.604 18.399 169.316 17.644C168.981 16.7739 168.816 15.8474 168.831 14.915C168.818 13.9815 168.988 13.0544 169.331 12.186C169.627 11.4174 170.131 10.7464 170.787 10.248C171.438 9.76944 172.229 9.51948 173.037 9.537C173.697 9.52213 174.349 9.6848 174.924 10.008C175.479 10.3374 175.929 10.8164 176.224 11.39L176.185 9.968C176.18 9.9378 176.182 9.90686 176.19 9.87744C176.199 9.84802 176.214 9.82088 176.234 9.798C176.256 9.7771 176.283 9.76099 176.311 9.75067C176.34 9.74035 176.371 9.73604 176.401 9.738H177.801C177.831 9.7341 177.861 9.73715 177.889 9.74689C177.917 9.75663 177.943 9.77281 177.964 9.79414C177.985 9.81547 178.001 9.84138 178.01 9.86981C178.019 9.89825 178.021 9.92844 178.017 9.958L177.942 14.787ZM173.452 18.964C173.856 18.9789 174.258 18.8923 174.62 18.7122C174.982 18.5321 175.293 18.2643 175.525 17.933C176.082 17.0248 176.342 15.9658 176.27 14.903C176.334 13.8454 176.077 12.7931 175.535 11.883C175.311 11.5421 175.003 11.2648 174.641 11.0778C174.278 10.8909 173.874 10.8007 173.466 10.816C173.053 10.7936 172.641 10.881 172.272 11.0693C171.903 11.2576 171.59 11.54 171.366 11.888C170.853 12.7635 170.608 13.7698 170.66 14.783C170.606 15.8456 170.851 16.902 171.366 17.833C171.578 18.1925 171.883 18.4877 172.25 18.687C172.616 18.8862 173.03 18.982 173.447 18.964H173.452ZM184.129 20.006C183.299 20.0303 182.481 19.7996 181.786 19.345C181.131 18.8946 180.621 18.2627 180.32 17.527C179.975 16.6872 179.805 15.7858 179.82 14.878C179.806 13.9557 179.976 13.0399 180.32 12.184C180.621 11.4223 181.129 10.7598 181.786 10.271C182.448 9.79706 183.247 9.55138 184.061 9.571C184.717 9.55599 185.364 9.72431 185.929 10.057C186.478 10.3983 186.92 10.8855 187.208 11.464L187.169 9.972C187.164 9.9418 187.166 9.91086 187.174 9.88144C187.183 9.85202 187.198 9.82488 187.218 9.802C187.24 9.7811 187.267 9.76499 187.295 9.75467C187.324 9.74435 187.355 9.74004 187.385 9.742H188.758C188.788 9.7381 188.818 9.74115 188.846 9.75089C188.874 9.76063 188.9 9.77681 188.921 9.79814C188.942 9.81947 188.958 9.84538 188.967 9.87381C188.976 9.90225 188.978 9.93244 188.974 9.962L188.915 14.862L188.964 19.329C189.011 19.952 188.934 20.5781 188.736 21.1707C188.538 21.7633 188.224 22.3105 187.812 22.78C187.367 23.2006 186.84 23.5248 186.264 23.7325C185.688 23.9402 185.075 24.0268 184.464 23.987C183.74 24.0014 183.018 23.8894 182.332 23.656C181.733 23.4561 181.201 23.0957 180.793 22.614C180.387 22.1095 180.148 21.492 180.107 20.846C180.094 20.6927 180.166 20.616 180.323 20.616H181.686C181.714 20.6134 181.743 20.6166 181.769 20.6254C181.796 20.6342 181.821 20.6484 181.842 20.6671C181.863 20.6858 181.881 20.7087 181.893 20.7343C181.905 20.7599 181.911 20.7877 181.912 20.816C181.942 21.0958 182.032 21.366 182.175 21.6086C182.317 21.8512 182.51 22.0606 182.74 22.223C183.266 22.5535 183.88 22.716 184.5 22.689C184.882 22.7128 185.264 22.6509 185.618 22.508C185.973 22.3651 186.291 22.1447 186.549 21.863C187.085 21.1224 187.338 20.215 187.265 19.304V18.112C186.983 18.6914 186.543 19.1791 185.995 19.519C185.429 19.8522 184.781 20.0206 184.124 20.005L184.129 20.006ZM184.492 18.754C184.883 18.7699 185.273 18.6901 185.626 18.5216C185.98 18.3531 186.287 18.101 186.521 17.787C187.072 16.9246 187.329 15.9076 187.256 14.887C187.318 13.8358 187.062 12.7903 186.521 11.887C186.296 11.5472 185.988 11.271 185.626 11.085C185.263 10.899 184.859 10.8095 184.452 10.825C184.042 10.8066 183.633 10.8958 183.268 11.0839C182.903 11.2719 182.593 11.5522 182.369 11.897C181.844 12.7791 181.593 13.7971 181.648 14.822C181.585 15.8445 181.837 16.8618 182.369 17.737C182.607 18.0714 182.927 18.3399 183.297 18.5176C183.667 18.6952 184.076 18.7762 184.486 18.753L184.492 18.754ZM192.6 15.128C192.659 17.712 193.662 19.004 195.61 19.004C196.254 19.0334 196.886 18.8192 197.38 18.404C197.864 17.9405 198.181 17.3291 198.28 16.666C198.287 16.6093 198.315 16.5572 198.359 16.5202C198.402 16.4832 198.458 16.4638 198.515 16.466H199.809C199.869 16.4621 199.928 16.4798 199.976 16.516C199.996 16.5349 200.011 16.5585 200.02 16.5847C200.028 16.6109 200.03 16.6389 200.025 16.666C199.929 17.3427 199.679 17.9885 199.295 18.554C198.915 19.1023 198.398 19.541 197.795 19.826C197.106 20.1434 196.354 20.2994 195.595 20.282C194.672 20.3108 193.76 20.0782 192.963 19.611C192.236 19.165 191.66 18.5106 191.31 17.733C190.923 16.8513 190.732 15.8958 190.751 14.933C190.73 13.9582 190.923 12.9907 191.315 12.098C191.662 11.3188 192.229 10.6583 192.947 10.198C193.71 9.73014 194.592 9.49358 195.486 9.517C196.363 9.49196 197.229 9.71408 197.986 10.158C198.696 10.6006 199.256 11.2462 199.594 12.011C199.992 12.9243 200.196 13.91 200.194 14.906C200.194 15.0593 200.122 15.136 199.978 15.136L192.6 15.128ZM195.5 10.781C195.134 10.7626 194.768 10.8253 194.429 10.9647C194.09 11.104 193.786 11.3165 193.539 11.587C193.015 12.2409 192.703 13.0398 192.647 13.876H198.247C198.235 13.335 198.115 12.8019 197.894 12.308C197.694 11.856 197.372 11.469 196.963 11.191C196.528 10.9081 196.016 10.7651 195.497 10.781H195.5Z" fill="black"/>
</g>
</svg>
